<svg width="33" height="32" viewBox="0 0 33 32" fill="none" xmlns="http://www.w3.org/2000/svg">
<path fill-rule="evenodd" clip-rule="evenodd" d="M8.86422 0L19.5669 0L28.6367 9.45343V27.8389C28.6367 30.131 26.7677 32 24.4756 32H8.86422C6.56235 32 4.70312 30.131 4.70312 27.8389L4.70312 4.16109C4.70312 1.85922 6.56235 0 8.86422 0V0Z" fill="#0086F9"/>
<path opacity="0.4" fill-rule="evenodd" clip-rule="evenodd" d="M19.5547 0V9.37475H28.6343L19.5547 0Z" fill="#0086F9"/>
<path d="M20.8848 20.865H12.4544C12.0609 20.865 11.7461 21.1798 11.7461 21.5733C11.7461 21.957 12.0609 22.2717 12.4544 22.2717H20.8848C21.2782 22.2717 21.593 21.9569 21.593 21.5733C21.593 21.1798 21.2782 20.865 20.8848 20.865ZM20.8848 23.6784H12.4544C12.0609 23.6784 11.7461 23.9932 11.7461 24.3867C11.7461 24.7704 12.0609 25.0851 12.4544 25.0851H20.8848C21.2782 25.0851 21.593 24.7703 21.593 24.3867C21.593 23.9932 21.2782 23.6784 20.8848 23.6784ZM16.5958 15.248H12.4544C12.0609 15.248 11.7461 15.553 11.7461 15.9465C11.7461 16.34 12.0609 16.6449 12.4544 16.6449H16.5958C16.9893 16.6449 17.3041 16.34 17.3041 15.9465C17.3041 15.553 16.9893 15.248 16.5958 15.248ZM20.8848 18.0516H12.4544C12.0609 18.0516 11.7461 18.3664 11.7461 18.7599C11.7461 19.1435 12.0609 19.4583 12.4544 19.4583H20.8848C21.2782 19.4583 21.593 19.1435 21.593 18.7599C21.593 18.3664 21.2782 18.0516 20.8848 18.0516Z" fill="white"/>
</svg>
