<svg width="33" height="32" viewBox="0 0 33 32" fill="none" xmlns="http://www.w3.org/2000/svg">
<path fill-rule="evenodd" clip-rule="evenodd" d="M0.336088 6.19479L9.74909 0L16.3361 5.54165L22.9229 0.000100667L32.3359 6.1949L25.827 11.4483L25.8267 11.4481L25.8267 11.4481L16.3359 5.54175L6.84509 11.4482L0.336088 6.19479ZM25.8267 11.4481L16.3359 17.3555L6.84494 11.449L0.335937 16.7024L9.74894 22.8972L16.3358 17.3556L22.9227 22.8973L32.3357 16.7025L25.827 11.4483L25.8269 11.4483L25.8267 11.4481ZM16.3549 18.5479L9.74887 24.0734L6.92187 22.2127L6.92187 24.2981L16.3549 30.0001L25.7879 24.2981V22.2127L22.9609 24.0734L16.3549 18.5479Z" fill="#0F82E2"/>
</svg>
