<svg width="31" height="26" viewBox="0 0 31 26" fill="none" xmlns="http://www.w3.org/2000/svg">
<g clip-path="url(#clip0_451_9695)">
<path d="M31.0008 13.8677C30.908 14.4544 30.8462 15.0469 30.7176 15.6249C30.0263 18.7319 28.2973 21.2169 25.6927 23.1702C23.8456 24.5575 21.7795 25.4997 19.4532 25.8454C16.344 26.3078 13.4417 25.7344 10.7928 24.091C10.6047 23.9781 10.4422 23.8305 10.3149 23.6569C10.1875 23.4833 10.0977 23.2872 10.051 23.0801C10.0042 22.873 10.0013 22.6591 10.0425 22.4509C10.0836 22.2427 10.168 22.0445 10.2907 21.8678C10.5339 21.5141 10.914 21.2663 11.348 21.1786C11.7821 21.0909 12.235 21.1704 12.6078 21.3996C14.0675 22.3098 15.7757 22.7909 17.5199 22.7829C19.5017 22.7829 21.2986 22.1753 22.9292 21.1233C25.0827 19.736 26.6212 17.8978 27.2919 15.4735C27.9929 12.9376 27.5884 10.515 26.3089 8.22533C25.11 6.07788 23.2992 4.57034 20.8825 3.75818C18.8419 3.07204 16.7698 3.05296 14.697 3.61251C11.4599 4.48767 9.16332 6.39523 7.88922 9.37911C7.36041 10.6289 7.14331 11.9428 7.17848 13.2931C7.17848 13.3387 7.19304 13.3844 7.21062 13.4931C7.59752 13.1225 7.94561 12.7832 8.30219 12.4526C9.06508 11.7387 10.2258 11.8231 10.868 12.6364C11.3295 13.2202 11.3155 14.0948 10.7716 14.6295C9.45805 15.9205 8.12936 17.1966 6.78552 18.4579C6.19607 19.0117 5.227 19.0273 4.60238 18.5111C3.24438 17.3935 1.89609 16.265 0.5575 15.1255C0.393663 14.9852 0.260695 14.8152 0.166313 14.6255C0.0719296 14.4358 0.0180118 14.2301 0.00768777 14.0204C-0.00263627 13.8107 0.0308371 13.6011 0.106169 13.4038C0.181502 13.2065 0.297191 13.0254 0.446523 12.8711C0.742413 12.5626 1.1523 12.3756 1.58992 12.3494C2.02753 12.3233 2.45874 12.4599 2.79279 12.7306C3.12148 12.9954 3.44228 13.2688 3.82372 13.585C3.82372 13.1804 3.81584 12.8416 3.82372 12.5017C3.9541 7.27039 7.58903 2.54254 12.7782 0.819384C14.62 0.207232 16.5072 -0.105492 18.4496 0.0320836C22.2979 0.300876 25.4805 1.85293 27.9183 4.72698C29.5878 6.70102 30.549 8.97737 30.8898 11.4873C30.9244 11.7427 30.9626 11.9971 30.999 12.252L31.0008 13.8677Z" fill="#637381" fill-opacity="0.5"/>
<path d="M15.3555 10.896C15.3555 10.0017 15.3555 9.10748 15.3555 8.21324C15.3555 7.35195 16.0007 6.71032 16.8715 6.70223C17.7424 6.69413 18.4167 7.32363 18.424 8.17914C18.4355 9.60634 18.4313 11.0341 18.424 12.4619C18.424 12.6711 18.4883 12.7868 18.6848 12.8885C19.8515 13.4939 21.0134 14.1078 22.1705 14.7301C22.7994 15.0672 23.088 15.6851 22.9443 16.3417C22.8771 16.6451 22.7071 16.9191 22.4606 17.1214C22.214 17.3237 21.9046 17.4432 21.5798 17.4614C21.2703 17.4754 20.9623 17.4119 20.6866 17.277C19.1602 16.4984 17.6478 15.6961 16.1384 14.888C15.6144 14.607 15.3561 14.1585 15.3579 13.5787C15.3579 12.6844 15.3555 11.7902 15.3555 10.896Z" fill="#637381" fill-opacity="0.5"/>
</g>
<defs>
<clipPath id="clip0_451_9695">
<rect width="31" height="26" fill="white"/>
</clipPath>
</defs>
</svg>
