<svg width="41" height="23" viewBox="0 0 41 23" fill="none" xmlns="http://www.w3.org/2000/svg">
<path d="M16.2586 16.0088C16.3139 15.9127 16.3603 15.8385 16.4024 15.7621L19.1147 11.1289C19.1437 11.0891 19.1593 11.0414 19.1593 10.9924C19.1593 10.9435 19.1437 10.8957 19.1147 10.856C17.6878 8.42366 16.2718 5.98698 14.8426 3.55903C14.6614 3.24853 14.4151 2.97979 14.1202 2.77077C13.8253 2.56176 13.4885 2.41728 13.1325 2.34701C12.7765 2.27674 12.4093 2.28228 12.0556 2.36328C11.7019 2.44427 11.3699 2.59884 11.0816 2.81667C10.798 3.03049 10.5629 3.30046 10.3913 3.60925L2.61253 16.928C2.34673 17.3533 2.20581 17.8432 2.20546 18.3429C2.21267 18.9414 2.43761 19.5174 2.83927 19.9659C3.24092 20.4144 3.79252 20.7055 4.3935 20.7861C5.05626 20.8799 5.72969 20.7108 6.26655 20.316C6.80342 19.9212 7.16007 19.3327 7.25855 18.6791C7.35174 18.1265 7.24273 17.5592 6.95103 17.0787C6.85396 16.9369 6.79011 16.7755 6.76408 16.6063C6.73806 16.4371 6.75052 16.2644 6.80058 16.1005C6.85444 15.9057 6.96556 15.7311 7.11991 15.5986C7.27426 15.4661 7.46493 15.3816 7.66785 15.356C7.87289 15.3138 8.08605 15.3341 8.2792 15.414C8.47235 15.4939 8.63641 15.6297 8.74971 15.8036C9.11841 16.3428 9.35405 16.9597 9.43776 17.6049C9.54749 18.276 9.5052 18.9629 9.31393 19.616C9.12266 20.2691 8.78717 20.8723 8.33156 21.3822C7.61521 22.2181 6.61626 22.7696 5.51962 22.9346C4.30978 23.1328 3.06913 22.8612 2.0578 22.1765C1.04647 21.4919 0.342988 20.4474 0.0948334 19.2621C-0.153625 18.1068 0.0528273 16.9014 0.672264 15.8909C1.59262 14.329 2.50782 12.765 3.41785 11.1988C5.09336 8.33268 6.7674 5.46441 8.43997 2.59396C8.84317 1.86529 9.43087 1.2522 10.1457 0.814488C11.0974 0.223375 12.2341 -0.0070287 13.3448 0.166016C14.0635 0.262513 14.7492 0.52444 15.3464 0.930648C15.9436 1.33686 16.4357 1.87596 16.7829 2.50444C17.9982 4.56994 19.2077 6.63836 20.4112 8.70969C20.4267 8.73589 20.4444 8.7599 20.4732 8.79921L20.5616 8.65946C21.7962 6.54374 23.0218 4.42366 24.2718 2.32759C24.6161 1.7226 25.0973 1.20428 25.6779 0.813049C26.2585 0.421816 26.9229 0.168251 27.6192 0.0721314C28.5811 -0.0841696 29.5684 0.057352 30.4455 0.477249C31.3226 0.897146 32.0464 1.57481 32.5174 2.41711C34.2032 5.32832 35.8994 8.22715 37.6059 11.1136C38.4909 12.6289 39.3758 14.1464 40.2608 15.6573C40.5863 16.1841 40.8148 16.7636 40.9355 17.3691C41.1293 18.3631 40.9798 19.3925 40.5108 20.2927C40.2075 20.9216 39.7609 21.4728 39.2059 21.903C38.6509 22.3333 38.0026 22.6311 37.3116 22.773C36.6019 22.9399 35.8624 22.9395 35.1528 22.7719C34.4433 22.6042 33.7837 22.274 33.2276 21.8079C32.7154 21.3715 32.2907 20.8442 31.9754 20.2534C30.2261 17.249 28.4732 14.2461 26.7165 11.2446C26.5741 10.9995 26.5334 10.7095 26.6031 10.4355C26.6729 10.1614 26.8475 9.92476 27.0904 9.77519C27.2114 9.69916 27.3465 9.64762 27.4878 9.62359C27.6292 9.59956 27.774 9.60351 27.9138 9.63521C28.0535 9.6669 28.1855 9.72571 28.3021 9.80822C28.4186 9.89072 28.5174 9.99528 28.5926 10.1158C29.0351 10.8407 29.4577 11.5809 29.8869 12.3145L34.0793 19.487C34.3482 19.9266 34.746 20.2751 35.2202 20.4865C35.6943 20.6978 36.2223 20.7619 36.7342 20.6704C37.2414 20.5762 37.7072 20.3308 38.0687 19.9674C38.4303 19.6039 38.6702 19.1398 38.7563 18.6376C38.8641 18.0422 38.751 17.4283 38.4378 16.9084L30.6501 3.57431C30.32 2.96987 29.7646 2.51578 29.1015 2.30794C28.6038 2.15547 28.0704 2.15997 27.5755 2.32082C27.0806 2.48168 26.6489 2.79086 26.3404 3.20531C25.9842 3.72496 25.6767 4.28174 25.3581 4.8254C24.1782 6.84287 22.9982 8.86107 21.8183 10.88C21.7926 10.9165 21.7788 10.96 21.7788 11.0044C21.7788 11.0489 21.7926 11.0923 21.8183 11.1289C22.7364 12.6878 23.6457 14.249 24.5661 15.8058C24.9338 16.4055 25.169 17.0751 25.2563 17.7708C25.3728 18.6893 25.2022 19.621 24.7674 20.4411C24.4724 21.0313 24.0515 21.5514 23.5337 21.966C23.0159 22.3805 22.4134 22.6797 21.7674 22.8429C20.7669 23.113 19.704 23.0494 18.7438 22.6621C17.7837 22.2748 16.98 21.5854 16.4577 20.7009C15.6435 19.356 14.867 17.9892 14.0749 16.6333C13.0513 14.8865 12.0277 13.1333 11.0041 11.3734C10.9173 11.2294 10.8653 11.0675 10.8521 10.9004C10.8389 10.7333 10.8649 10.5655 10.928 10.4099C10.9911 10.2543 11.0897 10.1151 11.2161 10.0031C11.3424 9.89119 11.4932 9.80945 11.6568 9.76427C11.8779 9.69818 12.1148 9.70506 12.3316 9.78386C12.5484 9.86267 12.7333 10.0091 12.8581 10.2009C13.2718 10.8756 13.6656 11.5634 14.0661 12.249L16.2032 15.904L16.2586 16.0088ZM20.4621 13.1704C20.4311 13.2141 20.4112 13.2403 20.3957 13.2665L18.2563 16.9324C17.9684 17.4255 17.8621 18.0018 17.9555 18.5634C18.0171 18.9549 18.172 19.3265 18.4074 19.6474C18.6428 19.9684 18.952 20.2297 19.3096 20.4098C19.6673 20.5899 20.0631 20.6837 20.4646 20.6834C20.8661 20.6832 21.2618 20.5889 21.6192 20.4084C22.2137 20.1102 22.664 19.5915 22.8714 18.966C23.0788 18.3406 23.0263 17.6594 22.7254 17.0721C22.7032 17.0306 22.6811 16.9892 22.6568 16.9477C22.1214 16.0248 21.5838 15.1027 21.0439 14.1813L20.4621 13.1704Z" fill="#01AF90"/>
</svg>
