<svg width="23" height="20" viewBox="0 0 23 20" fill="none" xmlns="http://www.w3.org/2000/svg">
<path d="M17.0665 9.97687C14.9809 9.68182 12.8948 9.38676 10.8084 9.09171C7.7234 8.66303 4.636 8.24448 1.55222 7.80822C0.857673 7.71085 0.513421 7.26321 0.511005 6.50323C0.504563 4.7759 0.504563 3.04772 0.511005 1.3187C0.511005 0.223628 1.25024 -0.278388 2.21778 0.155343C8.15422 2.81842 14.0899 5.48445 20.0247 8.15343C20.5224 8.37725 21.014 8.61625 21.5201 8.81857C22.0649 9.03733 22.4864 9.35473 22.4997 10.0249C22.513 10.6951 22.0769 11.0112 21.5418 11.249C18.7 12.5135 15.8603 13.7864 13.0225 15.0678C9.44588 16.6712 5.87289 18.2835 2.28662 19.8642C1.9411 20.008 1.56194 20.0385 1.19951 19.9514C0.69823 19.825 0.503758 19.3634 0.503758 18.826C0.503758 17.0557 0.495303 15.2853 0.503758 13.515C0.503758 12.8069 0.866129 12.3529 1.53048 12.2606C4.61426 11.8281 7.70046 11.4121 10.7867 10.9847C12.8739 10.6947 14.9608 10.3996 17.0472 10.0995L17.0665 9.97687Z" fill="#01AF90"/>
</svg>
